HIERARCHY
ROOT Hips
{
 OFFSET 0.000000 0.000000 0.000000
 CHANNELS 6 Xposition Yposition Zposition Yrotation Xrotation Zrotation
 JOINT Chest
 {
  OFFSET 0.000000 9.585900 0.002600
  CHANNELS 3 Yrotation Xrotation Zrotation
  JOINT Chest2
  {
   OFFSET 0.000000 9.601200 -0.005300
   CHANNELS 3 Yrotation Xrotation Zrotation
   JOINT Chest3
   {
    OFFSET 0.000000 9.561800 0.000000
    CHANNELS 3 Yrotation Xrotation Zrotation
    JOINT Chest4
    {
     OFFSET 0.000000 9.552100 0.000000
     CHANNELS 3 Yrotation Xrotation Zrotation
     JOINT Neck
     {
      OFFSET 0.000000 14.453000 0.000000
      CHANNELS 3 Yrotation Xrotation Zrotation
      JOINT Head
      {
       OFFSET 0.000000 8.936500 -0.011300
       CHANNELS 3 Yrotation Xrotation Zrotation
       End Site
       {
        OFFSET 0.000000 17.073600 -0.006000
       }
      }
     }
     JOINT RightCollar
     {
      OFFSET -2.921100 9.558500 0.000000
      CHANNELS 3 Yrotation Xrotation Zrotation
      JOINT RightShoulder
      {
       OFFSET -13.519700 0.000000 0.000000
       CHANNELS 3 Yrotation Xrotation Zrotation
       JOINT RightElbow
       {
        OFFSET 0.000000 -29.696600 0.000000
        CHANNELS 3 Yrotation Xrotation Zrotation
        JOINT RightWrist
        {
         OFFSET 0.000000 -24.004700 0.000000
         CHANNELS 3 Yrotation Xrotation Zrotation
         End Site
         {
          OFFSET 0.000000 -17.728500 0.000000
         }
        }
       }
      }
     }
     JOINT LeftCollar
     {
      OFFSET 2.921100 9.558500 0.000000
      CHANNELS 3 Yrotation Xrotation Zrotation
      JOINT LeftShoulder
      {
       OFFSET 13.519700 0.000000 0.000000
       CHANNELS 3 Yrotation Xrotation Zrotation
       JOINT LeftElbow
       {
        OFFSET 0.000000 -29.696600 0.000000
        CHANNELS 3 Yrotation Xrotation Zrotation
        JOINT LeftWrist
        {
         OFFSET 0.000000 -24.004700 0.000000
         CHANNELS 3 Yrotation Xrotation Zrotation
         End Site
         {
          OFFSET 0.000000 -17.728500 0.000000
         }
        }
       }
      }
     }
    }
   }
  }
 }
 JOINT RightHip
 {
  OFFSET -7.771700 -0.012900 -0.001300
  CHANNELS 3 Yrotation Xrotation Zrotation
  JOINT RightKnee
  {
   OFFSET 0.000000 -40.869800 0.001200
   CHANNELS 3 Yrotation Xrotation Zrotation
   JOINT RightAnkle
   {
    OFFSET 0.000000 -39.717900 0.002100
    CHANNELS 3 Yrotation Xrotation Zrotation
    JOINT RightToe
    {
     OFFSET 0.000000 -4.965400 11.033500
     CHANNELS 3 Yrotation Xrotation Zrotation
     End Site
     {
      OFFSET 0.000000 -1.423100 5.872300
     }
    }
   }
  }
 }
 JOINT LeftHip
 {
  OFFSET 7.771700 -0.012900 -0.001300
  CHANNELS 3 Yrotation Xrotation Zrotation
  JOINT LeftKnee
  {
   OFFSET 0.000000 -40.869800 0.001200
   CHANNELS 3 Yrotation Xrotation Zrotation
   JOINT LeftAnkle
   {
    OFFSET 0.000000 -39.717900 0.002100
    CHANNELS 3 Yrotation Xrotation Zrotation
    JOINT LeftToe
    {
     OFFSET 0.000000 -4.965400 11.033500
     CHANNELS 3 Yrotation Xrotation Zrotation
     End Site
     {
      OFFSET 0.000000 -1.423100 5.872300
     }
    }
   }
  }
 }
}
MOTION
Frames: 5
Frame Time: 0.008333
0.000000 85.388000 0.000000 0.000000 -5.767877 0.000000 0.000000 11.653817 0.000000 0.000000 -5.885947 0.000000 0.000000 -0.000000 0.000000 0.000000 -0.000000 0.000000 0.000000 12.528835 0.000000 0.000000 0.711642 0.000000 0.000000 -0.000000 0.000000 0.000000 0.000000 -90.000000 0.000000 -2.309062 0.000000 0.000000 2.309062 0.000000 0.000000 -0.000000 0.000000 0.000000 -0.000000 90.000000 0.000000 -2.309062 0.000000 0.000000 2.309062 0.000000 0.000000 8.520406 0.000000 0.000000 1.905762 0.000000 -0.000000 -4.658285 0.000000 0.000000 -0.000000 0.000000 0.000000 8.520406 0.000000 0.000000 1.905762 0.000000 -0.000000 -4.658285 0.000000 0.000000 -0.000000 0.000000
-43.565267 46.574028 13.051390 177.382303 -31.018226 -2.828130 -0.254341 19.985022 1.726259 -0.093684 2.485598 0.247654 -0.101950 4.078972 0.408512 -0.341470 17.199985 1.701516 -1.020949 19.178324 0.159670 -1.917070 -0.170968 0.610237 0.906608 1.704374 -2.238258 9.000395 -8.779252 -18.986483 -63.635721 -67.630491 112.954578 -0.989393 5.715283 -24.746610 -0.761448 0.708652 1.587257 -5.921133 -3.967281 14.169843 85.871157 -76.191756 -123.606178 -1.760780 11.677909 18.835985 -1.051067 -56.241626 -9.389431 -154.060127 79.650632 -145.257559 -8.244890 -12.222350 -5.697493 0.050791 -0.227866 0.048646 1.666633 -57.952593 9.730628 -111.389360 81.692570 -115.941603 4.015018 -6.712740 6.771955 0.023684 0.247578 -0.003796
-43.562883 46.573892 13.052867 177.353886 -31.024945 -2.833076 -0.271036 19.988908 1.725733 -0.053854 2.488797 0.251914 -0.120720 4.080110 0.407631 -0.349461 17.202656 1.700782 -0.993272 19.186572 0.126501 -1.856048 -0.156606 0.540862 0.926769 1.648878 -2.242687 9.031884 -8.742390 -18.980052 -64.547734 -68.111268 113.778830 -0.948105 5.668688 -24.925713 -0.809167 0.673473 1.612506 -5.986109 -3.968883 14.169916 87.575221 -76.612130 -125.156891 -1.999442 11.632699 18.926648 -1.047075 -56.245853 -9.339207 -154.012762 79.646479 -145.224785 -8.250424 -12.198160 -5.683128 0.058876 -0.239046 0.041244 1.647062 -57.947120 9.768363 -111.407898 81.682013 -115.941885 4.009701 -6.723275 6.743617 0.042341 0.253152 0.004972
-43.562302 46.573725 13.054802 177.335941 -31.030396 -2.834680 -0.275278 19.992144 1.726546 -0.054855 2.488883 0.252599 -0.148163 4.083765 0.405765 -0.330529 17.206357 1.699021 -0.961361 19.194077 0.092778 -1.787119 -0.143611 0.469150 0.951301 1.618745 -2.245543 9.111417 -8.738500 -18.966784 -65.518935 -68.637808 114.587861 -0.884191 5.601536 -25.036358 -0.836634 0.647778 1.631474 -6.081426 -3.973780 14.193132 89.488576 -77.008504 -126.911166 -2.277951 11.588046 18.916695 -1.048141 -56.245671 -9.311289 -153.994251 79.649564 -145.213195 -8.249200 -12.185530 -5.680834 0.051068 -0.242169 0.041118 1.632465 -57.941495 9.792100 -111.414489 81.683406 -115.944069 4.008668 -6.726521 6.734097 0.045960 0.254638 0.007053
-43.563736 46.573797 13.056757 177.323930 -31.037180 -2.829093 -0.283103 19.997556 1.719857 -0.079553 2.489448 0.249453 -0.124905 4.085764 0.407958 -0.334472 17.209056 1.698559 -0.928554 19.201754 0.059812 -1.716837 -0.130260 0.398526 0.972661 1.610198 -2.251879 9.199526 -8.739483 -18.944007 -66.632392 -69.225187 115.503979 -0.792518 5.525022 -25.053494 -0.837033 0.636304 1.634193 -6.217094 -3.985171 14.248399 91.474236 -77.349144 -128.745667 -2.565851 11.557986 18.811016 -1.039775 -56.241703 -9.305510 -153.982298 79.652918 -145.204709 -8.249501 -12.181618 -5.680854 0.044731 -0.239984 0.038581 1.614646 -57.932060 9.803990 -111.424945 81.693323 -115.963282 4.014010 -6.727739 6.736241 0.041209 0.252211 0.005680
